<mxfile host="65bd71144e">
    <diagram name="Page-1" id="YSVX19bpi6gor8JffCib">
        <mxGraphModel dx="1148" dy="950" grid="0" gridSize="10" guides="1" tooltips="1" connect="1" arrows="1" fold="1" page="0" pageScale="1" pageWidth="827" pageHeight="1169" math="0" shadow="0">
            <root>
                <mxCell id="0"/>
                <mxCell id="1" parent="0"/>
                <mxCell id="G3TMddx7dhgoGbsi0COR-1" value="AWS Cloud" style="points=[[0,0],[0.25,0],[0.5,0],[0.75,0],[1,0],[1,0.25],[1,0.5],[1,0.75],[1,1],[0.75,1],[0.5,1],[0.25,1],[0,1],[0,0.75],[0,0.5],[0,0.25]];outlineConnect=0;gradientColor=none;html=1;whiteSpace=wrap;fontSize=12;fontStyle=0;container=1;pointerEvents=0;collapsible=0;recursiveResize=0;shape=mxgraph.aws4.group;grIcon=mxgraph.aws4.group_aws_cloud_alt;strokeColor=#232F3E;fillColor=none;verticalAlign=top;align=left;spacingLeft=30;fontColor=#232F3E;dashed=0;" parent="1" vertex="1">
                    <mxGeometry y="170" width="776" height="354" as="geometry"/>
                </mxCell>
                <mxCell id="G3TMddx7dhgoGbsi0COR-5" value="Amazon API Gateway" style="sketch=0;points=[[0,0,0],[0.25,0,0],[0.5,0,0],[0.75,0,0],[1,0,0],[0,1,0],[0.25,1,0],[0.5,1,0],[0.75,1,0],[1,1,0],[0,0.25,0],[0,0.5,0],[0,0.75,0],[1,0.25,0],[1,0.5,0],[1,0.75,0]];outlineConnect=0;fontColor=#232F3E;fillColor=#E7157B;strokeColor=#ffffff;dashed=0;verticalLabelPosition=bottom;verticalAlign=top;align=center;html=1;fontSize=12;fontStyle=0;aspect=fixed;shape=mxgraph.aws4.resourceIcon;resIcon=mxgraph.aws4.api_gateway;" parent="G3TMddx7dhgoGbsi0COR-1" vertex="1">
                    <mxGeometry x="687" y="155" width="45" height="45" as="geometry"/>
                </mxCell>
                <mxCell id="G3TMddx7dhgoGbsi0COR-8" value="VPCE" style="sketch=0;outlineConnect=0;fontColor=#232F3E;gradientColor=none;fillColor=#8C4FFF;strokeColor=none;dashed=0;verticalLabelPosition=bottom;verticalAlign=top;align=center;html=1;fontSize=12;fontStyle=0;aspect=fixed;pointerEvents=1;shape=mxgraph.aws4.endpoints;" parent="G3TMddx7dhgoGbsi0COR-1" vertex="1">
                    <mxGeometry x="602" y="155" width="45" height="45" as="geometry"/>
                </mxCell>
                <mxCell id="G3TMddx7dhgoGbsi0COR-9" value="VPC" style="points=[[0,0],[0.25,0],[0.5,0],[0.75,0],[1,0],[1,0.25],[1,0.5],[1,0.75],[1,1],[0.75,1],[0.5,1],[0.25,1],[0,1],[0,0.75],[0,0.5],[0,0.25]];outlineConnect=0;gradientColor=none;html=1;whiteSpace=wrap;fontSize=12;fontStyle=0;container=1;pointerEvents=0;collapsible=0;recursiveResize=0;shape=mxgraph.aws4.group;grIcon=mxgraph.aws4.group_vpc2;strokeColor=#8C4FFF;fillColor=none;verticalAlign=top;align=left;spacingLeft=30;fontColor=#AAB7B8;dashed=0;" parent="G3TMddx7dhgoGbsi0COR-1" vertex="1">
                    <mxGeometry x="214" y="35" width="362" height="290" as="geometry"/>
                </mxCell>
                <mxCell id="G3TMddx7dhgoGbsi0COR-10" value="Private subnet" style="points=[[0,0],[0.25,0],[0.5,0],[0.75,0],[1,0],[1,0.25],[1,0.5],[1,0.75],[1,1],[0.75,1],[0.5,1],[0.25,1],[0,1],[0,0.75],[0,0.5],[0,0.25]];outlineConnect=0;gradientColor=none;html=1;whiteSpace=wrap;fontSize=12;fontStyle=0;container=1;pointerEvents=0;collapsible=0;recursiveResize=0;shape=mxgraph.aws4.group;grIcon=mxgraph.aws4.group_security_group;grStroke=0;strokeColor=#00A4A6;fillColor=#E6F6F7;verticalAlign=top;align=left;spacingLeft=30;fontColor=#147EBA;dashed=0;" parent="G3TMddx7dhgoGbsi0COR-9" vertex="1">
                    <mxGeometry x="133" y="32.5" width="210" height="115" as="geometry"/>
                </mxCell>
                <mxCell id="G3TMddx7dhgoGbsi0COR-13" value="Internal Application &lt;br&gt;Load Balancer" style="sketch=0;outlineConnect=0;fontColor=#232F3E;gradientColor=none;fillColor=#8C4FFF;strokeColor=none;dashed=0;verticalLabelPosition=bottom;verticalAlign=top;align=center;html=1;fontSize=12;fontStyle=0;aspect=fixed;pointerEvents=1;shape=mxgraph.aws4.application_load_balancer;" parent="G3TMddx7dhgoGbsi0COR-10" vertex="1">
                    <mxGeometry x="52.5" y="31.5" width="45" height="45" as="geometry"/>
                </mxCell>
                <mxCell id="G3TMddx7dhgoGbsi0COR-6" value="ENI" style="sketch=0;outlineConnect=0;fontColor=#232F3E;gradientColor=none;fillColor=#8C4FFF;strokeColor=none;dashed=0;verticalLabelPosition=bottom;verticalAlign=top;align=center;html=1;fontSize=12;fontStyle=0;aspect=fixed;pointerEvents=1;shape=mxgraph.aws4.elastic_network_interface;" parent="G3TMddx7dhgoGbsi0COR-10" vertex="1">
                    <mxGeometry x="154" y="34" width="40" height="40" as="geometry"/>
                </mxCell>
                <mxCell id="G3TMddx7dhgoGbsi0COR-17" style="edgeStyle=orthogonalEdgeStyle;rounded=0;orthogonalLoop=1;jettySize=auto;html=1;" parent="G3TMddx7dhgoGbsi0COR-10" source="G3TMddx7dhgoGbsi0COR-13" target="G3TMddx7dhgoGbsi0COR-6" edge="1">
                    <mxGeometry relative="1" as="geometry"/>
                </mxCell>
                <mxCell id="G3TMddx7dhgoGbsi0COR-12" value="Private subnet" style="points=[[0,0],[0.25,0],[0.5,0],[0.75,0],[1,0],[1,0.25],[1,0.5],[1,0.75],[1,1],[0.75,1],[0.5,1],[0.25,1],[0,1],[0,0.75],[0,0.5],[0,0.25]];outlineConnect=0;gradientColor=none;html=1;whiteSpace=wrap;fontSize=12;fontStyle=0;container=1;pointerEvents=0;collapsible=0;recursiveResize=0;shape=mxgraph.aws4.group;grIcon=mxgraph.aws4.group_security_group;grStroke=0;strokeColor=#00A4A6;fillColor=#E6F6F7;verticalAlign=top;align=left;spacingLeft=30;fontColor=#147EBA;dashed=0;" parent="G3TMddx7dhgoGbsi0COR-9" vertex="1">
                    <mxGeometry x="133" y="152.5" width="210" height="115" as="geometry"/>
                </mxCell>
                <mxCell id="G3TMddx7dhgoGbsi0COR-14" value="Internal Application &lt;br&gt;Load Balancer" style="sketch=0;outlineConnect=0;fontColor=#232F3E;gradientColor=none;fillColor=#8C4FFF;strokeColor=none;dashed=0;verticalLabelPosition=bottom;verticalAlign=top;align=center;html=1;fontSize=12;fontStyle=0;aspect=fixed;pointerEvents=1;shape=mxgraph.aws4.application_load_balancer;" parent="G3TMddx7dhgoGbsi0COR-12" vertex="1">
                    <mxGeometry x="52.5" y="30" width="45" height="45" as="geometry"/>
                </mxCell>
                <mxCell id="G3TMddx7dhgoGbsi0COR-7" value="ENI" style="sketch=0;outlineConnect=0;fontColor=#232F3E;gradientColor=none;fillColor=#8C4FFF;strokeColor=none;dashed=0;verticalLabelPosition=bottom;verticalAlign=top;align=center;html=1;fontSize=12;fontStyle=0;aspect=fixed;pointerEvents=1;shape=mxgraph.aws4.elastic_network_interface;" parent="G3TMddx7dhgoGbsi0COR-12" vertex="1">
                    <mxGeometry x="157" y="32.5" width="40" height="40" as="geometry"/>
                </mxCell>
                <mxCell id="G3TMddx7dhgoGbsi0COR-18" style="edgeStyle=orthogonalEdgeStyle;rounded=0;orthogonalLoop=1;jettySize=auto;html=1;" parent="G3TMddx7dhgoGbsi0COR-12" source="G3TMddx7dhgoGbsi0COR-14" target="G3TMddx7dhgoGbsi0COR-7" edge="1">
                    <mxGeometry relative="1" as="geometry"/>
                </mxCell>
                <mxCell id="4v_UvWIi-oDSqDEyGcNa-1" value="Public subnet" style="points=[[0,0],[0.25,0],[0.5,0],[0.75,0],[1,0],[1,0.25],[1,0.5],[1,0.75],[1,1],[0.75,1],[0.5,1],[0.25,1],[0,1],[0,0.75],[0,0.5],[0,0.25]];outlineConnect=0;gradientColor=none;html=1;whiteSpace=wrap;fontSize=12;fontStyle=0;container=1;pointerEvents=0;collapsible=0;recursiveResize=0;shape=mxgraph.aws4.group;grIcon=mxgraph.aws4.group_security_group;grStroke=0;strokeColor=#7AA116;fillColor=#F2F6E8;verticalAlign=top;align=left;spacingLeft=30;fontColor=#248814;dashed=0;" parent="G3TMddx7dhgoGbsi0COR-9" vertex="1">
                    <mxGeometry x="16" y="32.5" width="110" height="115" as="geometry"/>
                </mxCell>
                <mxCell id="4v_UvWIi-oDSqDEyGcNa-2" value="Public subnet" style="points=[[0,0],[0.25,0],[0.5,0],[0.75,0],[1,0],[1,0.25],[1,0.5],[1,0.75],[1,1],[0.75,1],[0.5,1],[0.25,1],[0,1],[0,0.75],[0,0.5],[0,0.25]];outlineConnect=0;gradientColor=none;html=1;whiteSpace=wrap;fontSize=12;fontStyle=0;container=1;pointerEvents=0;collapsible=0;recursiveResize=0;shape=mxgraph.aws4.group;grIcon=mxgraph.aws4.group_security_group;grStroke=0;strokeColor=#7AA116;fillColor=#F2F6E8;verticalAlign=top;align=left;spacingLeft=30;fontColor=#248814;dashed=0;" parent="G3TMddx7dhgoGbsi0COR-9" vertex="1">
                    <mxGeometry x="16" y="152.5" width="110" height="115" as="geometry"/>
                </mxCell>
                <mxCell id="G3TMddx7dhgoGbsi0COR-19" style="edgeStyle=orthogonalEdgeStyle;rounded=0;orthogonalLoop=1;jettySize=auto;html=1;entryX=0;entryY=0.5;entryDx=0;entryDy=0;entryPerimeter=0;" parent="G3TMddx7dhgoGbsi0COR-1" source="G3TMddx7dhgoGbsi0COR-8" target="G3TMddx7dhgoGbsi0COR-5" edge="1">
                    <mxGeometry relative="1" as="geometry"/>
                </mxCell>
                <mxCell id="G3TMddx7dhgoGbsi0COR-20" value="Route53&lt;br&gt;Public Hosted Zone" style="sketch=0;outlineConnect=0;fontColor=#232F3E;gradientColor=none;fillColor=#8C4FFF;strokeColor=none;dashed=0;verticalLabelPosition=bottom;verticalAlign=top;align=center;html=1;fontSize=12;fontStyle=0;aspect=fixed;pointerEvents=1;shape=mxgraph.aws4.hosted_zone;" parent="G3TMddx7dhgoGbsi0COR-1" vertex="1">
                    <mxGeometry x="45.39" y="39" width="47.61" height="47" as="geometry"/>
                </mxCell>
                <mxCell id="4v_UvWIi-oDSqDEyGcNa-3" style="edgeStyle=orthogonalEdgeStyle;rounded=0;orthogonalLoop=1;jettySize=auto;html=1;" parent="G3TMddx7dhgoGbsi0COR-1" source="G3TMddx7dhgoGbsi0COR-6" target="G3TMddx7dhgoGbsi0COR-8" edge="1">
                    <mxGeometry relative="1" as="geometry">
                        <Array as="points">
                            <mxPoint x="587" y="122"/>
                            <mxPoint x="587" y="179"/>
                        </Array>
                    </mxGeometry>
                </mxCell>
                <mxCell id="4v_UvWIi-oDSqDEyGcNa-4" style="edgeStyle=orthogonalEdgeStyle;rounded=0;orthogonalLoop=1;jettySize=auto;html=1;" parent="G3TMddx7dhgoGbsi0COR-1" source="G3TMddx7dhgoGbsi0COR-7" target="G3TMddx7dhgoGbsi0COR-8" edge="1">
                    <mxGeometry relative="1" as="geometry">
                        <Array as="points">
                            <mxPoint x="587" y="240"/>
                            <mxPoint x="587" y="179"/>
                        </Array>
                    </mxGeometry>
                </mxCell>
                <mxCell id="4v_UvWIi-oDSqDEyGcNa-5" value="Certificate Manager" style="sketch=0;points=[[0,0,0],[0.25,0,0],[0.5,0,0],[0.75,0,0],[1,0,0],[0,1,0],[0.25,1,0],[0.5,1,0],[0.75,1,0],[1,1,0],[0,0.25,0],[0,0.5,0],[0,0.75,0],[1,0.25,0],[1,0.5,0],[1,0.75,0]];outlineConnect=0;fontColor=#232F3E;fillColor=#DD344C;strokeColor=#ffffff;dashed=0;verticalLabelPosition=bottom;verticalAlign=top;align=center;html=1;fontSize=12;fontStyle=0;aspect=fixed;shape=mxgraph.aws4.resourceIcon;resIcon=mxgraph.aws4.certificate_manager_3;" parent="G3TMddx7dhgoGbsi0COR-1" vertex="1">
                    <mxGeometry x="48" y="213" width="45" height="45" as="geometry"/>
                </mxCell>
                <mxCell id="G3TMddx7dhgoGbsi0COR-23" style="edgeStyle=orthogonalEdgeStyle;rounded=0;orthogonalLoop=1;jettySize=auto;html=1;" parent="1" source="G3TMddx7dhgoGbsi0COR-2" target="G3TMddx7dhgoGbsi0COR-20" edge="1">
                    <mxGeometry relative="1" as="geometry">
                        <Array as="points">
                            <mxPoint x="-273" y="232"/>
                        </Array>
                    </mxGeometry>
                </mxCell>
                <mxCell id="G3TMddx7dhgoGbsi0COR-24" value="DNS Traffic" style="edgeLabel;html=1;align=center;verticalAlign=middle;resizable=0;points=[];" parent="G3TMddx7dhgoGbsi0COR-23" vertex="1" connectable="0">
                    <mxGeometry x="-0.0891" y="2" relative="1" as="geometry">
                        <mxPoint x="25" y="1" as="offset"/>
                    </mxGeometry>
                </mxCell>
                <mxCell id="G3TMddx7dhgoGbsi0COR-26" value="Corporate data center" style="points=[[0,0],[0.25,0],[0.5,0],[0.75,0],[1,0],[1,0.25],[1,0.5],[1,0.75],[1,1],[0.75,1],[0.5,1],[0.25,1],[0,1],[0,0.75],[0,0.5],[0,0.25]];outlineConnect=0;gradientColor=none;html=1;whiteSpace=wrap;fontSize=12;fontStyle=0;container=1;pointerEvents=0;collapsible=0;recursiveResize=0;shape=mxgraph.aws4.group;grIcon=mxgraph.aws4.group_corporate_data_center;strokeColor=#7D8998;fillColor=none;verticalAlign=top;align=left;spacingLeft=30;fontColor=#5A6C86;dashed=0;" parent="1" vertex="1">
                    <mxGeometry x="-372" y="170" width="198" height="355" as="geometry"/>
                </mxCell>
                <mxCell id="G3TMddx7dhgoGbsi0COR-2" value="users" style="sketch=0;outlineConnect=0;gradientColor=none;fontColor=#545B64;strokeColor=none;fillColor=#879196;dashed=0;verticalLabelPosition=bottom;verticalAlign=top;align=center;html=1;fontSize=12;fontStyle=0;aspect=fixed;shape=mxgraph.aws4.illustration_users;pointerEvents=1" parent="G3TMddx7dhgoGbsi0COR-26" vertex="1">
                    <mxGeometry x="69" y="148.5" width="60" height="60" as="geometry"/>
                </mxCell>
                <mxCell id="GW2vUlZItmaZXiintNhQ-1" style="edgeStyle=orthogonalEdgeStyle;rounded=0;orthogonalLoop=1;jettySize=auto;html=1;" parent="1" source="4v_UvWIi-oDSqDEyGcNa-6" target="G3TMddx7dhgoGbsi0COR-13" edge="1">
                    <mxGeometry relative="1" as="geometry">
                        <Array as="points">
                            <mxPoint x="169" y="349"/>
                            <mxPoint x="169" y="292"/>
                        </Array>
                    </mxGeometry>
                </mxCell>
                <mxCell id="GW2vUlZItmaZXiintNhQ-2" style="edgeStyle=orthogonalEdgeStyle;rounded=0;orthogonalLoop=1;jettySize=auto;html=1;" parent="1" source="4v_UvWIi-oDSqDEyGcNa-6" target="G3TMddx7dhgoGbsi0COR-14" edge="1">
                    <mxGeometry relative="1" as="geometry">
                        <Array as="points">
                            <mxPoint x="169" y="349"/>
                            <mxPoint x="169" y="410"/>
                        </Array>
                    </mxGeometry>
                </mxCell>
                <mxCell id="GW2vUlZItmaZXiintNhQ-3" value="HTTPS Traffic" style="edgeLabel;html=1;align=center;verticalAlign=middle;resizable=0;points=[];" parent="GW2vUlZItmaZXiintNhQ-2" vertex="1" connectable="0">
                    <mxGeometry x="-0.5477" relative="1" as="geometry">
                        <mxPoint y="1" as="offset"/>
                    </mxGeometry>
                </mxCell>
                <mxCell id="4v_UvWIi-oDSqDEyGcNa-6" value="AWS Site-to-Site VPN" style="sketch=0;points=[[0,0,0],[0.25,0,0],[0.5,0,0],[0.75,0,0],[1,0,0],[0,1,0],[0.25,1,0],[0.5,1,0],[0.75,1,0],[1,1,0],[0,0.25,0],[0,0.5,0],[0,0.75,0],[1,0.25,0],[1,0.5,0],[1,0.75,0]];outlineConnect=0;fontColor=#232F3E;fillColor=#8C4FFF;strokeColor=#ffffff;dashed=0;verticalLabelPosition=bottom;verticalAlign=top;align=center;html=1;fontSize=12;fontStyle=0;aspect=fixed;shape=mxgraph.aws4.resourceIcon;resIcon=mxgraph.aws4.client_vpn;" parent="1" vertex="1">
                    <mxGeometry x="-104" y="326" width="45" height="45" as="geometry"/>
                </mxCell>
                <mxCell id="4v_UvWIi-oDSqDEyGcNa-7" style="edgeStyle=orthogonalEdgeStyle;rounded=0;orthogonalLoop=1;jettySize=auto;html=1;entryX=0;entryY=0.5;entryDx=0;entryDy=0;entryPerimeter=0;" parent="1" source="G3TMddx7dhgoGbsi0COR-2" target="4v_UvWIi-oDSqDEyGcNa-6" edge="1">
                    <mxGeometry relative="1" as="geometry">
                        <Array as="points">
                            <mxPoint x="-113" y="348"/>
                            <mxPoint x="-104" y="349"/>
                        </Array>
                    </mxGeometry>
                </mxCell>
            </root>
        </mxGraphModel>
    </diagram>
</mxfile>